<svg width="23" height="23" viewBox="0 0 23 23" fill="none" xmlns="http://www.w3.org/2000/svg">
<g clip-path="url(#clip0_350_243)">
<path d="M8.01307 0.757007C5.71501 1.55422 3.73317 3.06737 2.35865 5.07418C0.984125 7.081 0.289369 9.4757 0.376429 11.9066C0.46349 14.3374 1.32778 16.6763 2.84234 18.5796C4.35691 20.483 6.44192 21.8504 8.79112 22.4812C10.6957 22.9727 12.6911 22.9942 14.6058 22.5441C16.3404 22.1545 17.944 21.3211 19.2597 20.1255C20.6291 18.8432 21.623 17.2119 22.1347 15.4069C22.6909 13.4441 22.7898 11.38 22.424 9.37302H11.729V13.8095H17.9228C17.799 14.5171 17.5338 15.1924 17.1429 15.7951C16.752 16.3978 16.2436 16.9154 15.648 17.317C14.8917 17.8173 14.0391 18.1539 13.1449 18.3053C12.2482 18.472 11.3284 18.472 10.4317 18.3053C9.52279 18.1174 8.663 17.7423 7.90706 17.2038C6.69264 16.3442 5.78077 15.1229 5.30159 13.7143C4.8143 12.2793 4.8143 10.7236 5.30159 9.28857C5.64268 8.28271 6.20655 7.36688 6.95112 6.60943C7.80318 5.72671 8.88192 5.09574 10.069 4.78574C11.256 4.47574 12.5055 4.49869 13.6804 4.85209C14.5982 5.13382 15.4375 5.62607 16.1314 6.28959C16.8297 5.59479 17.5269 4.89821 18.2229 4.19982C18.5823 3.82427 18.974 3.46669 19.328 3.08216C18.2689 2.09653 17.0256 1.32959 15.6696 0.825289C13.2001 -0.0713702 10.4981 -0.0954671 8.01307 0.757007Z" fill="white"/>
<path d="M8.01242 0.755928C10.4973 -0.0971264 13.1993 -0.0736638 15.6689 0.822412C17.0252 1.33014 18.2679 2.10078 19.3255 3.09007C18.9662 3.4746 18.587 3.83397 18.2205 4.20772C17.5233 4.90371 16.8267 5.59731 16.1307 6.28851C15.4368 5.62499 14.5976 5.13274 13.6798 4.85101C12.5053 4.49638 11.2558 4.47209 10.0684 4.78082C8.88107 5.08955 7.80167 5.71937 6.94867 6.60116C6.20411 7.35861 5.64023 8.27444 5.29914 9.2803L1.57422 6.39632C2.90751 3.75233 5.21603 1.72988 8.01242 0.755928Z" fill="#E33629"/>
<path d="M0.586089 9.25352C0.786299 8.26127 1.11869 7.30036 1.57437 6.39648L5.29929 9.28766C4.81201 10.7227 4.81201 12.2784 5.29929 13.7134C4.05825 14.6717 2.81661 15.6348 1.57437 16.6027C0.433625 14.3321 0.0857176 11.7449 0.586089 9.25352Z" fill="#F8BD00"/>
<path d="M11.7274 9.37109H22.4224C22.7882 11.3781 22.6892 13.4422 22.1331 15.405C21.6214 17.2099 20.6274 18.8412 19.2581 20.1236C18.056 19.1856 16.8485 18.2548 15.6463 17.3169C16.2423 16.9149 16.751 16.3967 17.1419 15.7934C17.5328 15.19 17.7979 14.514 17.9212 13.8058H11.7274C11.7256 12.3287 11.7274 10.8499 11.7274 9.37109Z" fill="#587DBD"/>
<path d="M1.57227 16.6023C2.81451 15.6439 4.05615 14.6808 5.29719 13.7129C5.77733 15.122 6.69049 16.3433 7.90625 17.2024C8.66455 17.7384 9.52619 18.1104 10.4362 18.2949C11.333 18.4617 12.2528 18.4617 13.1495 18.2949C14.0436 18.1436 14.8962 17.8069 15.6526 17.3066C16.8547 18.2446 18.0622 19.1754 19.2643 20.1134C17.9488 21.3096 16.3451 22.1436 14.6104 22.5338C12.6957 22.9839 10.7003 22.9623 8.7957 22.4709C7.28939 22.0687 5.88239 21.3597 4.66289 20.3883C3.37213 19.3635 2.31789 18.0721 1.57227 16.6023Z" fill="#319F43"/>
</g>
<defs>
<clipPath id="clip0_350_243">
<rect width="23" height="23" fill="white"/>
</clipPath>
</defs>
</svg>
